<svg width="41" height="41" viewBox="0 0 41 41" fill="none" xmlns="http://www.w3.org/2000/svg">
<path d="M9.45378 16.9444H23.1297C23.639 16.9444 24.0464 16.537 24.0464 16.0278V10.1667C24.0464 9.65741 23.639 9.25 23.1297 9.25H9.45378C8.94452 9.25 8.53711 9.65741 8.53711 10.1667V16.0278C8.53711 16.537 8.94452 16.9444 9.45378 16.9444ZM10.3704 11.0833H22.2223V15.1111H10.3704V11.0833Z" fill="black"/>
<path d="M11.4075 19.0186H9.45378C8.94452 19.0186 8.53711 19.426 8.53711 19.9352C8.53711 20.4445 8.94452 20.8519 9.45378 20.8519H11.4075C11.9167 20.8519 12.3241 20.4445 12.3241 19.9352C12.3241 19.4352 11.9167 19.0186 11.4075 19.0186Z" fill="black"/>
<path d="M17.2683 19.0186H15.3146C14.8054 19.0186 14.3979 19.426 14.3979 19.9352C14.3979 20.4445 14.8054 20.8519 15.3146 20.8519H17.2683C17.7776 20.8519 18.185 20.4445 18.185 19.9352C18.185 19.4352 17.7776 19.0186 17.2683 19.0186Z" fill="black"/>
<path d="M11.4075 22.9355H9.45378C8.94452 22.9355 8.53711 23.343 8.53711 23.8522C8.53711 24.3615 8.94452 24.7689 9.45378 24.7689H11.4075C11.9167 24.7689 12.3241 24.3615 12.3241 23.8522C12.3241 23.343 11.9167 22.9355 11.4075 22.9355Z" fill="black"/>
<path d="M17.2683 22.9355H15.3146C14.8054 22.9355 14.3979 23.343 14.3979 23.8522C14.3979 24.3615 14.8054 24.7689 15.3146 24.7689H17.2683C17.7776 24.7689 18.185 24.3615 18.185 23.8522C18.185 23.343 17.7776 22.9355 17.2683 22.9355Z" fill="black"/>
<path d="M11.4075 26.8428H9.45378C8.94452 26.8428 8.53711 27.2502 8.53711 27.7594C8.53711 28.2687 8.94452 28.6761 9.45378 28.6761H11.4075C11.9167 28.6761 12.3241 28.2687 12.3241 27.7594C12.3241 27.2502 11.9167 26.8428 11.4075 26.8428Z" fill="black"/>
<path d="M17.2683 26.8428H15.3146C14.8054 26.8428 14.3979 27.2502 14.3979 27.7594C14.3979 28.2687 14.8054 28.6761 15.3146 28.6761H17.2683C17.7776 28.6761 18.185 28.2687 18.185 27.7594C18.185 27.2502 17.7776 26.8428 17.2683 26.8428Z" fill="black"/>
<path d="M11.4075 30.75H9.45378C8.94452 30.75 8.53711 31.1574 8.53711 31.6667C8.53711 32.1759 8.94452 32.5833 9.45378 32.5833H11.4075C11.9167 32.5833 12.3241 32.1759 12.3241 31.6667C12.3241 31.1574 11.9167 30.75 11.4075 30.75Z" fill="black"/>
<path d="M17.2683 30.75H15.3146C14.8054 30.75 14.3979 31.1574 14.3979 31.6667C14.3979 32.1759 14.8054 32.5833 15.3146 32.5833H17.2683C17.7776 32.5833 18.185 32.1759 18.185 31.6667C18.185 31.1574 17.7776 30.75 17.2683 30.75Z" fill="black"/>
<path d="M27.5928 18.88C27.5743 18.88 27.5558 18.88 27.528 18.88V8.86149C27.528 6.84297 25.8798 5.19482 23.8613 5.19482H8.77799C6.75948 5.19482 5.11133 6.84297 5.11133 8.86149V32.8059C5.11133 34.8245 6.75948 36.4726 8.77799 36.4726H27.5928C32.4447 36.4726 36.3891 32.5282 36.3891 27.6763C36.3891 22.8245 32.4354 18.88 27.5928 18.88ZM8.77799 34.6393C7.76874 34.6393 6.94466 33.8152 6.94466 32.8059V8.86149C6.94466 7.85223 7.76874 7.02816 8.77799 7.02816H23.8613C24.8706 7.02816 25.6947 7.85223 25.6947 8.86149V19.0837C25.1298 19.2041 24.5928 19.3893 24.0743 19.6115C23.9632 19.2226 23.6113 18.9356 23.1947 18.9356H21.241C20.7317 18.9356 20.3243 19.343 20.3243 19.8522C20.3243 20.3615 20.7317 20.7689 21.241 20.7689H22.1484C20.1113 22.38 18.7965 24.88 18.7965 27.667C18.7965 30.5004 20.1391 33.0189 22.2224 34.63L8.77799 34.6393ZM27.5928 34.6393C23.7502 34.6393 20.6298 31.5189 20.6298 27.6763C20.6298 23.8337 23.7502 20.7133 27.5928 20.7133C31.4354 20.7133 34.5558 23.8337 34.5558 27.6763C34.5558 31.5189 31.4261 34.6393 27.5928 34.6393Z" fill="black"/>
<path d="M28.5465 26.8522C27.9632 26.6485 27.3243 26.3985 26.9725 26.13C26.9539 26.1115 26.9076 26.0096 26.9354 25.8522C26.9447 25.7782 27.0188 25.5189 27.2595 25.4541C27.5188 25.3707 27.8613 25.5096 28.1484 25.6763C28.5095 25.8893 28.9725 25.8152 29.2595 25.5004C29.6669 25.0652 29.5373 24.3615 29.0095 24.0837C28.8336 23.9911 28.6391 23.9078 28.4447 23.8337C28.4354 23.343 28.028 22.9448 27.528 22.9448C27.0651 22.9448 26.6762 23.2874 26.6206 23.7411C25.8521 24.0189 25.2873 24.6856 25.1391 25.5189C24.9817 26.3337 25.2595 27.1207 25.8428 27.5837C26.3984 28.0189 27.1762 28.3245 27.9354 28.593C28.3891 28.7504 28.4354 29.0745 28.3984 29.3245C28.3521 29.593 28.1206 30.0559 27.528 30.0652C26.9169 30.0652 26.7688 30.0467 26.3243 29.7504C25.8984 29.4726 25.3336 29.593 25.0558 30.0189C24.778 30.4448 24.8984 31.0096 25.3243 31.2874C25.815 31.6115 26.2039 31.7689 26.6299 31.843C26.7039 32.2689 27.0836 32.6022 27.528 32.6022C28.0188 32.6022 28.4076 32.2226 28.4447 31.7411C29.3521 31.417 30.0373 30.63 30.2039 29.6393C30.4076 28.3893 29.741 27.2782 28.5465 26.8522Z" fill="black"/>
</svg>
