<svg width="41" height="41" viewBox="0 0 41 41" fill="none" xmlns="http://www.w3.org/2000/svg">
<path d="M7.16681 9.06494H12.0279C12.4631 9.06494 12.8798 9.21309 13.2131 9.49087L14.815 10.8242C14.8798 10.8798 14.9631 10.9075 15.0557 10.9075H30.0464C31.065 10.9075 31.889 11.7316 31.889 12.7501V16.0742C31.889 16.2779 32.0557 16.4446 32.2594 16.4446H33.7316C34.5372 16.4446 35.1853 17.0927 35.1853 17.8983C35.1853 18.0094 35.1761 18.1298 35.1483 18.2316L32.2224 30.5094C32.0279 31.3427 31.2779 31.9261 30.4261 31.9261H7.16681C6.14829 31.9261 5.32422 31.102 5.32422 30.0835V10.9075C5.32422 9.88902 6.14829 9.06494 7.16681 9.06494ZM33.1205 18.7409C33.1298 18.7131 33.1298 18.6853 33.1298 18.6575C33.1298 18.4538 32.9631 18.2872 32.7594 18.2872H11.8427C11.5094 18.2872 11.2131 18.5094 11.1298 18.8335L8.21311 29.6205C8.20385 29.6483 8.20385 29.6853 8.20385 29.7131C8.20385 29.9168 8.37052 30.0835 8.57422 30.0835H30.1298C30.2964 30.0835 30.4446 29.9631 30.4909 29.7964L33.1205 18.7409ZM7.53718 10.9075C7.33348 10.9075 7.16681 11.0742 7.16681 11.2779V25.5649C7.16681 25.6298 7.21311 25.6946 7.27792 25.7038C7.352 25.7223 7.43533 25.6761 7.46311 25.602L9.57422 17.7964C9.78718 16.9909 10.5187 16.4353 11.352 16.4353H29.6761C29.8798 16.4353 30.0464 16.2686 30.0464 16.0649V13.1112C30.0464 12.9075 29.8798 12.7409 29.6761 12.7409H14.9076C14.4724 12.7409 14.0557 12.5927 13.7224 12.3149L12.1205 10.9816C12.0557 10.9261 11.9724 10.8983 11.8798 10.8983L7.53718 10.9075Z" fill="black"/>
</svg>
