<svg width="41" height="41" viewBox="0 0 41 41" fill="none" xmlns="http://www.w3.org/2000/svg">
<path d="M18.1481 30.5838H16.3796L15.5833 11.4819H29.4444V14.0838C29.4444 14.3153 29.537 14.5375 29.6944 14.6949C29.8611 14.8616 30.074 14.9449 30.3055 14.9449C30.537 14.9449 30.7592 15.0375 30.9166 15.1949C31.0833 15.3616 31.1666 15.5745 31.1666 15.806C31.1666 16.0375 31.074 16.2597 30.9166 16.4171C30.75 16.5838 30.537 16.6671 30.3055 16.6671C30.074 16.6671 29.8518 16.5745 29.6944 16.4171C29.5277 16.2505 29.4444 16.0375 29.4444 15.806C29.4444 15.5005 29.2777 15.2134 29.0092 15.056C28.7407 14.8986 28.4074 14.8986 28.1388 15.056C27.8703 15.2134 27.7037 15.5005 27.7037 15.806C27.7037 16.4449 27.9351 17.0653 28.3611 17.5375C28.787 18.019 29.3703 18.3153 30.0092 18.3893C30.6481 18.4634 31.287 18.2968 31.8055 17.9264C32.324 17.556 32.6944 17.0097 32.8425 16.3801C32.9907 15.7597 32.8981 15.1023 32.5833 14.5375C32.2777 13.9727 31.7685 13.5468 31.1666 13.3338V10.5838C31.1666 10.556 31.1574 10.5282 31.1481 10.5005C31.1296 10.2227 30.9629 9.97268 30.7129 9.84305C30.6759 9.81527 30.6296 9.79675 30.5833 9.77823C30.5648 9.76897 30.5555 9.75971 30.537 9.75045L12.3055 4.57453C12.0277 4.4912 11.7222 4.56527 11.5 4.75045L5.42588 9.96342C5.24995 10.1208 5.13884 10.343 5.12032 10.5745C5.11107 10.8153 5.1944 11.0468 5.36107 11.2134C5.52773 11.3893 5.74995 11.4819 5.99069 11.4819H8.55551L7.75921 30.5838H5.99069C5.75921 30.5838 5.53699 30.6764 5.37958 30.8338C5.22218 30.9912 5.12958 31.2134 5.12958 31.4449V34.9171C5.12958 35.1486 5.22218 35.3708 5.37958 35.5282C5.54625 35.6949 5.75921 35.7782 5.99069 35.7782H18.1481C18.3796 35.7782 18.6018 35.6856 18.7592 35.5282C18.9259 35.3616 19.0092 35.1486 19.0092 34.9171V31.4449C19.0092 31.2134 18.9166 30.9912 18.7592 30.8338C18.5925 30.6764 18.3796 30.5838 18.1481 30.5838ZM14.2037 20.1671H9.93514L10.0833 16.6949H14.0648L14.2037 20.1671ZM9.86107 21.9079H14.2685L14.4166 25.3801H9.71292L9.86107 21.9079ZM12.2777 6.37083L24.1018 9.75045H8.33329L12.2777 6.37083ZM13.8425 11.4819L13.9907 14.9542H10.1574L10.3055 11.4819H13.8425ZM9.63884 27.1116H14.4814L14.6296 30.5838H9.49069L9.63884 27.1116ZM17.2777 34.056H6.86107V32.3153H17.2777V34.056Z" fill="black"/>
<path d="M18.148 35.8428H5.9906C5.74986 35.8428 5.51838 35.741 5.34245 35.5743C5.16653 35.3984 5.07394 35.1669 5.07394 34.9262V31.4539C5.07394 31.2132 5.17579 30.9817 5.34245 30.8058C5.50912 30.6391 5.74986 30.5373 5.9906 30.5373H7.72208L8.51838 11.528H5.9906C5.7406 11.528 5.49986 11.4262 5.32394 11.241C5.14801 11.0558 5.06468 10.8151 5.07394 10.5651C5.0832 10.3151 5.20357 10.0836 5.38875 9.91691L11.4628 4.70395C11.6943 4.50024 12.0091 4.43543 12.3054 4.51876L30.5369 9.73173C30.5554 9.73173 30.5647 9.74099 30.5739 9.75024C30.5832 9.75024 30.5832 9.7595 30.5925 9.7595C30.6387 9.77802 30.685 9.79654 30.7313 9.82432C30.9906 9.96321 31.1665 10.2225 31.185 10.5188C31.1943 10.5373 31.1943 10.5651 31.2036 10.6021V13.3336C31.8054 13.5558 32.3054 13.9817 32.611 14.5465C32.9258 15.1206 33.0184 15.778 32.8702 16.4169C32.7221 17.0558 32.3517 17.6114 31.8147 17.9817C31.2869 18.3614 30.6295 18.528 29.9813 18.4539C29.3332 18.3799 28.7406 18.0743 28.3054 17.5836C27.8702 17.0928 27.6295 16.4725 27.6295 15.8151C27.6295 15.491 27.8054 15.1854 28.0832 15.028C28.361 14.8706 28.7128 14.8614 28.9999 15.028C29.2869 15.1947 29.4536 15.491 29.4536 15.8151C29.4536 16.028 29.5369 16.241 29.6943 16.3984C29.8517 16.5558 30.0554 16.6391 30.2776 16.6391C30.4906 16.6391 30.7036 16.5558 30.861 16.3984C31.0184 16.241 31.1017 16.0373 31.1017 15.8151C31.1017 15.5928 31.0184 15.3891 30.861 15.2317C30.7036 15.0743 30.4999 14.991 30.2776 14.991C30.0369 14.991 29.8054 14.8984 29.6295 14.7225C29.4628 14.5558 29.361 14.3151 29.361 14.0743V11.5188H15.6295L16.4258 30.528H18.1573C18.398 30.528 18.6295 30.6206 18.8054 30.7965C18.9721 30.9632 19.0739 31.2039 19.0739 31.4447V34.9169C19.0739 35.1576 18.9813 35.3891 18.8054 35.5651C18.6202 35.7502 18.3887 35.8428 18.148 35.8428ZM5.9906 30.6299C5.77764 30.6299 5.56468 30.7132 5.40727 30.8706C5.24986 31.028 5.16653 31.2317 5.16653 31.4539V34.9262C5.16653 35.1484 5.24986 35.3521 5.40727 35.5095C5.56468 35.6669 5.76838 35.7502 5.9906 35.7502H18.148C18.3702 35.7502 18.5739 35.6669 18.7313 35.5095C18.8888 35.3521 18.9721 35.1484 18.9721 34.9262V31.4539C18.9721 31.241 18.8888 31.028 18.7313 30.8706C18.5739 30.7132 18.3702 30.6299 18.148 30.6299H16.3332V30.5836L15.5369 11.4354H29.4906V14.0836C29.4906 14.2965 29.5739 14.5095 29.7313 14.6669C29.8888 14.8243 30.0925 14.9077 30.3147 14.9077C30.5554 14.9077 30.7869 15.0002 30.9628 15.1762C31.1387 15.3521 31.2313 15.5743 31.2313 15.8243C31.2313 16.0651 31.1295 16.2965 30.9628 16.4725C30.7962 16.6391 30.5554 16.741 30.3147 16.741C30.0739 16.741 29.8425 16.6484 29.6665 16.4725C29.4999 16.3058 29.398 16.0651 29.398 15.8243C29.398 15.528 29.2406 15.2595 28.9906 15.1114C28.7406 14.9632 28.4258 14.9632 28.1665 15.1114C27.9165 15.2595 27.7591 15.528 27.7591 15.8243C27.7591 16.4539 27.9906 17.0558 28.4073 17.528C28.8239 18.0002 29.398 18.2965 30.0276 18.3706C30.6573 18.4447 31.2776 18.278 31.7962 17.9169C32.3054 17.5558 32.6665 17.0188 32.8147 16.3984C32.9536 15.7873 32.8702 15.1391 32.5647 14.5928C32.2591 14.0373 31.7684 13.6206 31.1758 13.4077L31.148 13.3984V10.6114C31.148 10.5928 31.1388 10.5651 31.1295 10.5373C31.111 10.2595 30.9536 10.028 30.7221 9.90765C30.685 9.87987 30.6387 9.86136 30.6017 9.84284C30.5925 9.84284 30.5832 9.83358 30.5739 9.82432C30.5647 9.82432 30.5647 9.81506 30.5554 9.81506L12.2962 4.61136C12.0276 4.53728 11.7499 4.6021 11.5369 4.77802L5.46283 9.99099C5.29616 10.1391 5.18505 10.3521 5.17579 10.5743C5.16653 10.7965 5.24986 11.0188 5.39801 11.1854C5.55542 11.3521 5.76838 11.4447 5.9906 11.4447H8.61097V11.491L7.80542 30.6299H5.9906ZM17.3239 34.1021H6.81468V32.2688H17.3239V34.1021ZM6.89801 34.0095H17.2221V32.3614H6.89801V34.0095ZM14.685 30.6299H9.45357L9.60171 27.0651H14.5369L14.685 30.6299ZM9.54616 30.5373H14.5832L14.4443 27.1577H9.68505L9.54616 30.5373ZM14.4628 25.4262H9.66653L9.81468 21.8614H14.3147L14.4628 25.4262ZM9.75912 25.3336H14.361L14.2221 21.9539H9.90727L9.75912 25.3336ZM14.2499 20.2132H9.88875L10.0369 16.6484H14.1017L14.2499 20.2132ZM9.98134 20.1206H14.1573L14.0184 16.741H10.1295L9.98134 20.1206ZM14.0276 15.0002H10.1017L10.2499 11.4354H13.8795L14.0276 15.0002ZM10.1943 14.9077H13.935L13.7962 11.528H10.3425L10.1943 14.9077ZM24.435 9.79654H8.21283L12.2684 6.32432L12.2962 6.33358L24.435 9.79654ZM8.46283 9.70395H23.7776L12.2962 6.42617L8.46283 9.70395Z" fill="black"/>
<path d="M35.5092 20.167C35.2778 20.167 35.0555 20.2595 34.8981 20.417C34.7315 20.5836 34.6481 20.7966 34.6481 21.0281V28.8429H31.1759V21.0281C31.1759 20.7966 31.0833 20.5744 30.9259 20.4077C30.7592 20.241 30.5463 20.1484 30.3148 20.1484C30.0833 20.1484 29.8611 20.241 29.7037 20.4077C29.537 20.5744 29.4537 20.7966 29.4537 21.0281V28.8429H25.9815V27.1114C25.9815 26.8058 25.8148 26.5188 25.5463 26.3614C25.2778 26.204 24.9444 26.204 24.6759 26.3614C24.4074 26.5188 24.2407 26.8058 24.2407 27.1114V34.9262C24.2407 35.1577 24.3333 35.3799 24.4907 35.5373C24.6574 35.704 24.8704 35.7873 25.1018 35.7873H35.5185C35.75 35.7873 35.9722 35.6947 36.1296 35.5373C36.2963 35.3707 36.3796 35.1577 36.3796 34.9262V21.0373C36.3796 20.8058 36.287 20.5836 36.1296 20.4262C35.9629 20.2595 35.7407 20.167 35.5092 20.167ZM25.9629 30.5836H29.4352V34.0558H25.9629V30.5836ZM31.1666 34.0651V30.5929H34.6389V34.0651H31.1666Z" fill="black"/>
<path d="M35.5091 35.8428H25.0924C24.8517 35.8428 24.6202 35.741 24.4443 35.5743C24.2684 35.3984 24.1758 35.1762 24.1758 34.9262V27.1113C24.1758 26.7873 24.3517 26.4817 24.6295 26.3243C24.9073 26.1576 25.2591 26.1576 25.5462 26.3243C25.8239 26.491 25.9999 26.7873 25.9999 27.1113V28.8058H29.3795V21.0373C29.3795 20.7965 29.4721 20.565 29.648 20.3891C29.8239 20.2132 30.0554 20.1206 30.2962 20.1206C30.5369 20.1206 30.7684 20.2132 30.9443 20.3891C31.1202 20.565 31.2128 20.7965 31.2128 21.0373V28.8058H34.5924V21.0373C34.5924 20.7965 34.685 20.565 34.861 20.3891C35.0276 20.2225 35.2406 20.1299 35.4721 20.1206H35.4999C35.7406 20.1206 35.9721 20.2225 36.148 20.3891C36.3239 20.565 36.4165 20.7873 36.4165 21.0373V34.9262C36.4165 35.1669 36.3239 35.3984 36.148 35.5743C35.9906 35.741 35.7499 35.8428 35.5091 35.8428ZM24.2684 34.9262C24.2684 35.1484 24.3517 35.3521 24.5091 35.5095C24.6665 35.6669 24.8702 35.7502 25.0924 35.7502H35.5091C35.7221 35.7502 35.935 35.6669 36.0924 35.5095C36.2499 35.3521 36.3332 35.1484 36.3332 34.9262V21.0373C36.3332 20.815 36.2499 20.6113 36.0924 20.4539C35.9443 20.3058 35.7406 20.2225 35.5276 20.2132H35.5091C35.2869 20.2132 35.0832 20.2965 34.9258 20.4539C34.7684 20.6113 34.685 20.815 34.685 21.0373V28.8984H31.1202V21.0373C31.1202 20.8243 31.0369 20.6113 30.8795 20.4539C30.7221 20.2965 30.5184 20.2132 30.2962 20.2132C30.0739 20.2132 29.8702 20.2965 29.7128 20.4539C29.5554 20.6113 29.4721 20.815 29.4721 21.0373V28.8984H25.9073V27.1113C25.9073 26.8151 25.7499 26.5465 25.4999 26.3984C25.2499 26.2502 24.935 26.2502 24.6758 26.3984C24.4258 26.5465 24.2684 26.8151 24.2684 27.1113V34.9262V34.9262ZM29.4813 34.1113H25.9165V30.5373H29.4813V34.1113ZM26.0091 34.0188H29.3887V30.6299H26.0091V34.0188ZM34.685 34.1113H31.1202V30.5373H34.685V34.1113ZM31.2128 34.0188H34.5924V30.6299H31.2128V34.0188Z" fill="black"/>
</svg>
