<svg width="41" height="41" viewBox="0 0 41 41" fill="none" xmlns="http://www.w3.org/2000/svg">
<path d="M27.8423 24.5278H4.25897C3.89786 24.5278 3.60156 24.2315 3.60156 23.8704V13.1481C3.60156 12.787 3.89786 12.4907 4.25897 12.4907H27.833C28.009 12.4907 28.1756 12.5648 28.296 12.6852C28.4164 12.8055 28.4905 12.9722 28.4905 13.1481V23.8704C28.4905 24.0463 28.4164 24.2129 28.296 24.3333C28.1849 24.4629 28.0182 24.5278 27.8423 24.5278ZM4.92564 23.2129H27.1849V13.8148H4.92564V23.2129Z" fill="black"/>
<path d="M27.8424 24.7131H4.2591C3.79613 24.7131 3.4165 24.3334 3.4165 23.8705V13.1483C3.4165 12.6853 3.79613 12.3057 4.2591 12.3057H27.8332C28.0554 12.3057 28.2776 12.3983 28.435 12.5557C28.5924 12.7131 28.685 12.926 28.685 13.1575V23.8705C28.685 24.0927 28.5924 24.3057 28.435 24.4631C28.2776 24.6205 28.0647 24.7131 27.8424 24.7131ZM3.78687 13.1483V23.8705C3.78687 24.1297 3.99984 24.3427 4.2591 24.3427H27.8332C27.9535 24.3427 28.0832 24.2964 28.1665 24.2038C28.2591 24.1112 28.3054 23.9908 28.3054 23.8705V13.1483C28.3054 13.0186 28.2591 12.8983 28.1665 12.8149C28.0739 12.7223 27.9535 12.676 27.8332 12.676H4.2591C3.99984 12.676 3.78687 12.889 3.78687 13.1483ZM27.3609 23.3983H4.73132V13.6297H27.3609V23.3983ZM5.11095 23.0279H26.9998V14.0001H5.11095V23.0279Z" fill="black"/>
<path d="M14.7405 29.0741H11.0461C10.685 29.0741 10.3887 28.7778 10.3887 28.4167C10.3887 28.0556 10.685 27.7593 11.0461 27.7593H14.7405C15.1016 27.7593 15.3979 28.0556 15.3979 28.4167C15.3979 28.7778 15.1016 29.0741 14.7405 29.0741Z" fill="black"/>
<path d="M14.7407 29.2594H11.0462C10.5832 29.2594 10.2036 28.8798 10.2036 28.4168C10.2036 27.9538 10.5832 27.5742 11.0462 27.5742H14.7407C15.2036 27.5742 15.5832 27.9538 15.5832 28.4168C15.5832 28.8798 15.2036 29.2594 14.7407 29.2594ZM11.0462 27.9446C10.7869 27.9446 10.574 28.1576 10.574 28.4168C10.574 28.6761 10.7869 28.889 11.0462 28.889H14.7407C14.9999 28.889 15.2129 28.6761 15.2129 28.4168C15.2129 28.1576 14.9999 27.9446 14.7407 27.9446H11.0462Z" fill="black"/>
<path d="M27.8423 29.074H18.4071C18.046 29.074 17.7497 28.7777 17.7497 28.4166C17.7497 28.0555 18.046 27.7592 18.4071 27.7592H27.1849V24.5277H4.92564V27.7592H7.3886C7.74971 27.7592 8.04601 28.0555 8.04601 28.4166C8.04601 28.7777 7.74971 29.074 7.3886 29.074H4.25897C3.89786 29.074 3.60156 28.7777 3.60156 28.4166V23.8703C3.60156 23.5092 3.89786 23.2129 4.25897 23.2129H27.833C28.009 23.2129 28.1756 23.2777 28.296 23.4073C28.4164 23.5277 28.4905 23.6944 28.4905 23.8703V28.4166C28.4905 28.5925 28.4164 28.7592 28.296 28.8796C28.1849 29.0092 28.0182 29.074 27.8423 29.074Z" fill="black"/>
<path d="M27.8424 29.2593H18.4072C17.9443 29.2593 17.5647 28.8797 17.5647 28.4167C17.5647 27.9538 17.9443 27.5741 18.4072 27.5741H26.9998V24.713H5.11095V27.5741H7.38873C7.85169 27.5741 8.23132 27.9538 8.23132 28.4167C8.23132 28.8797 7.85169 29.2593 7.38873 29.2593H4.2591C3.79613 29.2593 3.4165 28.8797 3.4165 28.4167V23.8704C3.4165 23.4075 3.79613 23.0278 4.2591 23.0278H27.8332C28.0554 23.0278 28.2776 23.1204 28.435 23.2778C28.5924 23.4352 28.685 23.6482 28.685 23.8797V28.426C28.685 28.6482 28.6017 28.8612 28.435 29.0186C28.2776 29.176 28.0647 29.2593 27.8424 29.2593ZM18.4072 27.9445C18.148 27.9445 17.935 28.1575 17.935 28.4167C17.935 28.676 18.148 28.8889 18.4072 28.8889H27.8424C27.9721 28.8889 28.0924 28.8426 28.1758 28.7501C28.2684 28.6575 28.3147 28.5371 28.3147 28.4167V23.8704C28.3147 23.7408 28.2684 23.6204 28.1758 23.5371C28.0832 23.4445 27.9628 23.3982 27.8424 23.3982H4.2591C3.99984 23.3982 3.78687 23.6112 3.78687 23.8704V28.4167C3.78687 28.676 3.99984 28.8889 4.2591 28.8889H7.37947C7.63873 28.8889 7.85169 28.676 7.85169 28.4167C7.85169 28.1575 7.63873 27.9445 7.37947 27.9445H4.74058V24.3426H27.3702V27.9445H18.4072Z" fill="black"/>
<path d="M9.21291 30.9073C8.5555 30.9073 7.91661 30.648 7.45365 30.1758C6.99069 29.7128 6.72217 29.0739 6.72217 28.4165C6.72217 27.7591 6.98143 27.1202 7.45365 26.6573C7.92587 26.1943 8.5555 25.9258 9.21291 25.9258C9.87032 25.9258 10.5092 26.185 10.9722 26.6573C11.4351 27.1295 11.7036 27.7591 11.7036 28.4165C11.7036 29.0739 11.4351 29.7128 10.9722 30.1758C10.5092 30.648 9.87032 30.9073 9.21291 30.9073ZM9.21291 27.2406C8.89809 27.2406 8.6018 27.361 8.37958 27.5832C8.15735 27.8054 8.03698 28.1017 8.03698 28.4165C8.03698 28.7313 8.15735 29.0276 8.37958 29.2499C8.6018 29.4721 8.89809 29.5924 9.21291 29.5924C9.52772 29.5924 9.82402 29.4721 10.0462 29.2499C10.2685 29.0276 10.3888 28.7313 10.3888 28.4165C10.3888 28.1017 10.2685 27.8054 10.0462 27.5832C9.82402 27.3702 9.52772 27.2406 9.21291 27.2406Z" fill="black"/>
<path d="M9.21302 31.0926C8.50005 31.0926 7.82413 30.8148 7.31487 30.3055C6.80561 29.7963 6.52783 29.1296 6.52783 28.4074C6.52783 27.6944 6.80561 27.0185 7.31487 26.5185C7.82413 26.0092 8.4908 25.7314 9.20376 25.7314C9.91672 25.7314 10.5926 26.0092 11.0926 26.5185C11.6019 27.0277 11.8797 27.6944 11.8797 28.4166C11.8797 29.1296 11.6019 29.8055 11.0926 30.3055C10.6019 30.8148 9.92598 31.0926 9.21302 31.0926ZM9.21302 26.1111C8.60191 26.1111 8.01857 26.3518 7.58339 26.787C7.1482 27.2222 6.90746 27.8055 6.90746 28.4166C6.90746 29.037 7.1482 29.6111 7.58339 30.0463C8.01857 30.4814 8.60191 30.7222 9.21302 30.7222C9.83339 30.7222 10.4075 30.4814 10.8426 30.0463C11.2778 29.6111 11.5186 29.0277 11.5186 28.4166C11.5186 27.7963 11.2778 27.2222 10.8426 26.787C10.4167 26.3518 9.82413 26.1111 9.21302 26.1111ZM9.21302 29.7777C8.85191 29.7777 8.50931 29.6389 8.25005 29.3796C7.99079 29.1203 7.85191 28.7777 7.85191 28.4166C7.85191 28.0555 7.99079 27.7129 8.25005 27.4537C8.50931 27.1944 8.85191 27.0555 9.21302 27.0555C9.57413 27.0555 9.91672 27.1944 10.176 27.4537C10.4352 27.7129 10.5741 28.0555 10.5741 28.4166C10.5741 28.7777 10.4352 29.1203 10.176 29.3796C9.91672 29.6296 9.57413 29.7777 9.21302 29.7777ZM9.21302 27.4259C8.9445 27.4259 8.70376 27.5277 8.51857 27.7129C8.33339 27.8981 8.23154 28.1481 8.23154 28.4074C8.23154 28.6759 8.33339 28.9166 8.51857 29.1018C8.70376 29.287 8.95376 29.3889 9.21302 29.3889C9.48154 29.3889 9.72228 29.287 9.90746 29.1018C10.0926 28.9166 10.1945 28.6666 10.1945 28.4074C10.1945 28.1389 10.0926 27.8981 9.90746 27.7037C9.72228 27.5277 9.47228 27.4259 9.21302 27.4259Z" fill="black"/>
<path d="M16.5737 30.9073C15.9163 30.9073 15.2775 30.648 14.8145 30.1758C14.3515 29.7128 14.083 29.0739 14.083 28.4165C14.083 27.7591 14.3423 27.1202 14.8145 26.6573C15.2867 26.1943 15.9163 25.9258 16.5737 25.9258C17.2312 25.9258 17.87 26.185 18.333 26.6573C18.796 27.1295 19.0645 27.7591 19.0645 28.4165C19.0645 29.0739 18.796 29.7128 18.333 30.1758C17.87 30.648 17.2312 30.9073 16.5737 30.9073ZM16.5737 27.2406C16.2589 27.2406 15.9626 27.361 15.7404 27.5832C15.5182 27.8054 15.3978 28.1017 15.3978 28.4165C15.3978 28.7313 15.5182 29.0276 15.7404 29.2499C15.9626 29.4721 16.2589 29.5924 16.5737 29.5924C16.8886 29.5924 17.1849 29.4721 17.4071 29.2499C17.6293 29.0276 17.7497 28.7313 17.7497 28.4165C17.7497 28.1017 17.6293 27.8054 17.4071 27.5832C17.1849 27.3702 16.8793 27.2406 16.5737 27.2406Z" fill="black"/>
<path d="M16.5739 31.0926C15.8609 31.0926 15.185 30.8148 14.6757 30.3055C14.1664 29.7963 13.8887 29.1296 13.8887 28.4074C13.8887 27.6944 14.1664 27.0185 14.6757 26.5185C15.185 26.0092 15.8516 25.7314 16.5646 25.7314C17.2776 25.7314 17.9535 26.0092 18.4535 26.5185C18.9627 27.0277 19.2405 27.6944 19.2405 28.4166C19.2405 29.1296 18.9627 29.8055 18.4535 30.3055C17.9627 30.8148 17.2868 31.0926 16.5739 31.0926ZM16.5739 26.1111C15.9627 26.1111 15.3794 26.3518 14.9442 26.787C14.509 27.2222 14.2683 27.8055 14.2683 28.4166C14.2683 29.037 14.509 29.6111 14.9442 30.0463C15.3794 30.4814 15.9627 30.7222 16.5739 30.7222C17.1942 30.7222 17.7683 30.4814 18.2035 30.0463C18.6387 29.6111 18.8794 29.0277 18.8794 28.4166C18.8794 27.7963 18.6387 27.2222 18.2035 26.787C17.7683 26.3518 17.1942 26.1111 16.5739 26.1111ZM16.5739 29.7777C16.2127 29.7777 15.8702 29.6389 15.6109 29.3796C15.3516 29.1203 15.2127 28.7777 15.2127 28.4166C15.2127 28.0555 15.3516 27.7129 15.6109 27.4537C15.8702 27.1944 16.2127 27.0555 16.5739 27.0555C16.935 27.0555 17.2776 27.2037 17.5368 27.4537C17.7961 27.7129 17.935 28.0555 17.935 28.4166C17.935 28.7777 17.7961 29.1203 17.5368 29.3796C17.2776 29.6296 16.935 29.7777 16.5739 29.7777ZM16.5739 27.4259C16.3053 27.4259 16.0646 27.5277 15.8794 27.7129C15.6942 27.8981 15.5924 28.1481 15.5924 28.4074C15.5924 28.6666 15.6942 28.9166 15.8794 29.1018C16.0646 29.287 16.3146 29.3889 16.5739 29.3889C16.8331 29.3889 17.0831 29.287 17.2683 29.1018C17.4535 28.9166 17.5553 28.6666 17.5553 28.4074C17.5553 28.1481 17.4535 27.8981 17.2683 27.7037C17.0831 27.537 16.8331 27.4259 16.5739 27.4259Z" fill="black"/>
<path d="M32.5366 30.9073C31.8792 30.9073 31.2403 30.648 30.7774 30.1758C30.3144 29.7128 30.0459 29.0739 30.0459 28.4165C30.0459 27.7591 30.3052 27.1202 30.7774 26.6573C31.2496 26.1943 31.8792 25.9258 32.5366 25.9258C33.194 25.9258 33.8329 26.185 34.2959 26.6573C34.7589 27.1295 35.0274 27.7591 35.0274 28.4165C35.0274 29.0739 34.7589 29.7128 34.2959 30.1758C33.8329 30.648 33.2033 30.9073 32.5366 30.9073ZM32.5366 27.2406C32.2218 27.2406 31.9255 27.361 31.7033 27.5832C31.4811 27.8054 31.3607 28.1017 31.3607 28.4165C31.3607 28.7313 31.4811 29.0276 31.7033 29.2499C31.9255 29.4721 32.2218 29.5924 32.5366 29.5924C32.8515 29.5924 33.1477 29.4721 33.37 29.2499C33.5922 29.0276 33.7126 28.7313 33.7126 28.4165C33.7126 28.1017 33.5922 27.8054 33.37 27.5832C33.1477 27.3702 32.8515 27.2406 32.5366 27.2406Z" fill="black"/>
<path d="M32.5367 31.0926C31.8238 31.0926 31.1479 30.8148 30.6386 30.3055C30.1293 29.7963 29.8516 29.1296 29.8516 28.4074C29.8516 27.6944 30.1293 27.0185 30.6386 26.5185C31.1479 26.0092 31.8145 25.7314 32.5275 25.7314C33.2312 25.7314 33.9256 26.0185 34.4164 26.5185C34.9256 27.0277 35.2034 27.6944 35.2034 28.4166C35.2034 29.1296 34.9256 29.8055 34.4164 30.3055C33.9256 30.8148 33.2497 31.0926 32.5367 31.0926ZM32.5367 26.1111C31.9164 26.1111 31.3423 26.3518 30.9071 26.787C30.4719 27.2222 30.2312 27.8055 30.2312 28.4166C30.2312 29.037 30.4719 29.6111 30.9071 30.0463C31.3423 30.4814 31.9256 30.7222 32.5367 30.7222C33.1479 30.7222 33.7312 30.4814 34.1664 30.0463C34.6016 29.6111 34.8423 29.0277 34.8423 28.4166C34.8423 27.7963 34.6016 27.2222 34.1664 26.787C33.7405 26.3518 33.1479 26.1111 32.5367 26.1111ZM32.5367 29.7777C32.1756 29.7777 31.833 29.6389 31.5738 29.3796C31.3145 29.1203 31.1756 28.7777 31.1756 28.4166C31.1756 28.0555 31.3145 27.7129 31.5738 27.4537C31.833 27.1944 32.1756 27.0555 32.5367 27.0555C32.8979 27.0555 33.2405 27.1944 33.4997 27.4537C33.759 27.7129 33.8979 28.0555 33.8979 28.4166C33.8979 28.7777 33.759 29.1203 33.4997 29.3796C33.2405 29.6296 32.8979 29.7777 32.5367 29.7777ZM32.5367 27.4259C32.2682 27.4259 32.0275 27.5277 31.8423 27.7129C31.6571 27.8981 31.5553 28.1481 31.5553 28.4074C31.5553 28.6759 31.6571 28.9166 31.8423 29.1018C32.0275 29.287 32.2775 29.3889 32.5367 29.3889C32.796 29.3889 33.046 29.287 33.2312 29.1018C33.4164 28.9166 33.5182 28.6666 33.5182 28.4074C33.5182 28.1389 33.4164 27.8981 33.2312 27.7037C33.0553 27.5277 32.8053 27.4259 32.5367 27.4259Z" fill="black"/>
<path d="M36.4813 29.0741H34.3702C34.0091 29.0741 33.7128 28.7778 33.7128 28.4167C33.7128 28.0556 34.0091 27.7593 34.3702 27.7593H36.4813C36.5369 27.7593 36.5739 27.713 36.5739 27.6667V20.2222C36.5739 19.25 36.185 18.3241 35.4998 17.6389C34.8147 16.9537 33.8887 16.5648 32.9165 16.5648H28.4906V27.7593H30.6943C31.0554 27.7593 31.3517 28.0556 31.3517 28.4167C31.3517 28.7778 31.0554 29.0741 30.6943 29.0741H27.8239C27.4628 29.0741 27.1665 28.7778 27.1665 28.4167V15.9074C27.1665 15.5463 27.4628 15.25 27.8239 15.25H32.9072C34.2221 15.25 35.4906 15.7778 36.4165 16.7037C37.3517 17.6389 37.8702 18.8981 37.8702 20.213V27.6574C37.8702 28.037 37.7221 28.3889 37.4535 28.6574C37.2221 28.9259 36.8609 29.0741 36.4813 29.0741Z" fill="black"/>
<path d="M30.7037 29.2594H27.8333C27.3704 29.2594 26.9907 28.8798 26.9907 28.4168V15.9075C26.9907 15.4446 27.3704 15.0649 27.8333 15.0649H32.9166C34.2963 15.0649 35.5833 15.602 36.5648 16.5742C37.537 17.5464 38.0741 18.8427 38.0741 20.2223V27.6668C38.0741 28.0927 37.9074 28.5001 37.6018 28.7964C37.2963 29.102 36.8981 29.2686 36.4722 29.2686H36.287H34.3611C33.8981 29.2686 33.5185 28.889 33.5185 28.4261C33.5185 27.9631 33.8981 27.5835 34.3611 27.5835H36.3981V20.2316C36.3981 19.3057 36.037 18.4353 35.3796 17.7779C34.7222 17.1205 33.8518 16.7594 32.9259 16.7594H28.6852V27.5742H30.7037C31.1666 27.5742 31.5463 27.9538 31.5463 28.4168C31.5555 28.8798 31.1759 29.2594 30.7037 29.2594ZM27.8426 15.4353C27.5833 15.4353 27.3704 15.6483 27.3704 15.9075V28.4168C27.3704 28.6761 27.5833 28.889 27.8426 28.889H30.7129C30.9722 28.889 31.1852 28.6761 31.1852 28.4168C31.1852 28.1575 30.9722 27.9446 30.7129 27.9446H28.3241V16.3798H32.9352C33.9629 16.3798 34.9259 16.7779 35.6481 17.5094C36.3704 18.2316 36.7685 19.1946 36.7685 20.2223V27.6668C36.7685 27.8242 36.6389 27.9446 36.4907 27.9446H34.3796C34.1204 27.9446 33.9074 28.1575 33.9074 28.4168C33.9074 28.6761 34.1204 28.889 34.3796 28.889H36.5278C36.8426 28.8798 37.1389 28.7501 37.3611 28.5279C37.5926 28.2964 37.7222 27.9909 37.7222 27.6575V20.2131C37.7222 18.9353 37.2222 17.7316 36.3148 16.8335C35.4074 15.9261 34.2129 15.4353 32.9352 15.4261H27.8426V15.4353Z" fill="black"/>
<path d="M30.9811 25.3148H30.194C29.8329 25.3148 29.5366 25.0185 29.5366 24.6574C29.5366 24.2963 29.8329 24 30.194 24H30.9811C31.3422 24 31.6385 24.2963 31.6385 24.6574C31.6385 25.0185 31.3422 25.3148 30.9811 25.3148Z" fill="black"/>
<path d="M30.9812 25.5001H30.1942C29.7312 25.5001 29.3516 25.1205 29.3516 24.6575C29.3516 24.1946 29.7312 23.8149 30.1942 23.8149H30.9812C31.4442 23.8149 31.8238 24.1946 31.8238 24.6575C31.8238 25.1205 31.4442 25.5001 30.9812 25.5001ZM30.1942 25.1298H30.9812C31.2405 25.1298 31.4534 24.9168 31.4534 24.6575C31.4534 24.3983 31.2405 24.1853 30.9812 24.1853H30.1942C29.9349 24.1853 29.7219 24.3983 29.7219 24.6575C29.7219 24.9168 29.9349 25.1298 30.1942 25.1298Z" fill="black"/>
<path d="M34.8792 23.1484H30.194C29.8329 23.1484 29.5366 22.8521 29.5366 22.491V18.2687C29.5366 17.9076 29.8329 17.6113 30.194 17.6113H33.2496C33.8607 17.6113 34.4348 17.8521 34.87 18.278C35.2959 18.7039 35.5366 19.2873 35.5366 19.8984V22.491C35.5459 22.8521 35.2496 23.1484 34.8792 23.1484ZM30.8514 21.8336H34.2218V19.8891C34.2218 19.3521 33.7866 18.9169 33.2496 18.9169H30.8514V21.8336Z" fill="black"/>
<path d="M34.8793 23.3337H30.1942C29.7312 23.3337 29.3516 22.954 29.3516 22.4911V18.2689C29.3516 17.8059 29.7312 17.4263 30.1942 17.4263H33.2497C33.9071 17.4263 34.5275 17.6855 34.9997 18.1485C35.4627 18.6115 35.7219 19.2411 35.7219 19.8985V22.4911C35.7312 22.954 35.3516 23.3337 34.8793 23.3337ZM30.1942 17.7874C29.9349 17.7874 29.7219 18.0003 29.7219 18.2596V22.4818C29.7219 22.7411 29.9349 22.954 30.1942 22.954H34.8793C35.1386 22.954 35.3516 22.7411 35.3516 22.4818V19.8892C35.3516 19.3244 35.1293 18.7966 34.7312 18.3985C34.333 18.0003 33.8053 17.7781 33.2405 17.7781H30.1942V17.7874ZM34.4071 22.0189H30.6664V18.7411H33.2497C33.8886 18.7411 34.4071 19.2596 34.4071 19.8985V20.454V22.0189ZM31.0367 21.6485H34.0367V19.88C34.0275 19.454 33.6756 19.1115 33.2497 19.1115H31.0367V21.6485Z" fill="black"/>
</svg>
