<svg width="41" height="41" viewBox="0 0 41 41" fill="none" xmlns="http://www.w3.org/2000/svg">
<path fill-rule="evenodd" clip-rule="evenodd" d="M27.7686 21.2503C27.7686 20.6022 27.2409 20.0836 26.5927 20.0836H26.5835H21.4168V11.3244C21.4168 10.6762 20.889 10.1577 20.2409 10.1577C19.5927 10.1577 19.0649 10.6855 19.0649 11.3244C19.0649 11.3336 19.0649 11.3522 19.0649 11.3614V22.4262H26.5835C27.2409 22.417 27.7686 21.8892 27.7686 21.2503Z" fill="black"/>
<path d="M20.2222 8.13903C27.2222 8.13903 32.9074 13.815 32.9074 20.8242C32.9074 27.8335 27.2314 33.5094 20.2222 33.5094C13.2129 33.5094 7.53698 27.8335 7.53698 20.8242C7.53698 13.815 13.2222 8.13903 20.2222 8.13903ZM20.2222 5.82422C16.2129 5.82422 12.4444 7.38903 9.61106 10.2131C6.77772 13.0464 5.22217 16.815 5.22217 20.8242C5.22217 24.8335 6.78698 28.602 9.61106 31.4353C12.4444 34.2687 16.2129 35.8242 20.2222 35.8242C24.2314 35.8242 27.9999 34.2594 30.8333 31.4353C33.6666 28.602 35.2222 24.8335 35.2222 20.8242C35.2222 16.815 33.6573 13.0464 30.8333 10.2131C27.9999 7.37977 24.2314 5.82422 20.2222 5.82422Z" fill="black"/>
</svg>
