<svg width="41" height="41" viewBox="0 0 41 41" fill="none" xmlns="http://www.w3.org/2000/svg">
<path d="M22.8701 10.1021C23.4442 9.54653 23.796 8.77801 23.796 7.9169C23.796 6.23172 22.4257 4.87061 20.7497 4.87061C19.0738 4.87061 17.6942 6.24098 17.6942 7.92616C17.6942 8.77801 18.0553 9.55579 18.6201 10.1113C16.546 10.6669 15.1201 12.0095 15.1201 13.6299V15.9632C15.1201 16.278 15.3794 16.5373 15.6942 16.5373H25.8053C26.1201 16.5373 26.3794 16.278 26.3794 15.9632V13.6206C26.3701 12.0095 24.9442 10.6576 22.8701 10.1021ZM18.8423 7.92616C18.8423 6.87061 19.7035 6.01875 20.7497 6.01875C21.8053 6.01875 22.6572 6.87986 22.6572 7.92616C22.6572 8.97246 21.8053 9.83357 20.7497 9.83357C19.6942 9.83357 18.8423 8.97246 18.8423 7.92616ZM20.7497 10.9725C23.1757 10.9725 25.2312 12.1854 25.2312 13.6206V15.3891H16.2683V13.6206C16.2683 12.1854 18.3238 10.9725 20.7497 10.9725Z" fill="black"/>
<path d="M25.8052 16.8612H15.694C15.2033 16.8612 14.7959 16.4631 14.7959 15.9631V13.6205C14.7959 12.0279 16.0552 10.6205 18.0459 9.93528C17.6107 9.35194 17.37 8.6575 17.37 7.91676C17.37 6.05565 18.8885 4.54639 20.7496 4.54639C22.6107 4.54639 24.12 6.0649 24.12 7.91676C24.12 8.6575 23.8792 9.35194 23.444 9.93528C25.4348 10.6205 26.694 12.0279 26.694 13.6205V15.9631C26.694 16.4631 26.2959 16.8612 25.8052 16.8612ZM20.7496 5.19453C19.2496 5.19453 18.0181 6.41676 18.0181 7.91676C18.0181 8.6575 18.3144 9.35194 18.8515 9.87046L19.2589 10.2686L18.7033 10.4168C16.7218 10.9445 15.444 12.2038 15.444 13.6205V15.9631C15.444 16.1019 15.5552 16.2131 15.694 16.2131H25.8052C25.944 16.2131 26.0552 16.1019 26.0552 15.9631V13.6205C26.0552 12.2038 24.7774 10.9445 22.7959 10.4168L22.2403 10.2686L22.6478 9.87046C23.1848 9.35194 23.4718 8.6575 23.4718 7.91676C23.4811 6.41676 22.2496 5.19453 20.7496 5.19453ZM25.5552 15.7223H15.944V13.6297C15.944 11.9908 18.1015 10.6575 20.7496 10.6575C23.3978 10.6575 25.5552 11.9908 25.5552 13.6297V15.7223ZM16.5922 15.0742H24.907V13.6297C24.907 12.389 22.9626 11.3056 20.7496 11.3056C18.5366 11.3056 16.5922 12.389 16.5922 13.6297V15.0742V15.0742ZM20.7496 10.1575C19.5181 10.1575 18.5181 9.1575 18.5181 7.92602C18.5181 6.69453 19.5181 5.69453 20.7496 5.69453C21.9811 5.69453 22.9811 6.69453 22.9811 7.92602C22.9811 9.1575 21.9811 10.1575 20.7496 10.1575ZM20.7496 6.33342C19.8792 6.33342 19.1663 7.04639 19.1663 7.91676C19.1663 8.78713 19.8792 9.50009 20.7496 9.50009C21.62 9.50009 22.3329 8.78713 22.3329 7.91676C22.3329 7.04639 21.62 6.33342 20.7496 6.33342Z" fill="black"/>
<path d="M11.4722 29.6948C12.0462 29.1393 12.3981 28.3708 12.3981 27.5097C12.3981 25.8245 11.0277 24.4541 9.34254 24.4541C7.65735 24.4541 6.29624 25.8245 6.29624 27.5097C6.29624 28.3615 6.65735 29.1393 7.22217 29.6948C5.14809 30.2504 3.72217 31.6022 3.72217 33.2134V35.556C3.72217 35.8708 3.98143 36.13 4.29624 36.13H14.4074C14.7222 36.13 14.9814 35.8708 14.9814 35.556V33.2134C14.9722 31.6022 13.5462 30.2504 11.4722 29.6948ZM7.44439 27.5189C7.44439 26.4634 8.3055 25.6115 9.3518 25.6115C10.4074 25.6115 11.2592 26.4726 11.2592 27.5189C11.2592 28.5745 10.3981 29.4263 9.3518 29.4263C8.29624 29.4263 7.44439 28.5652 7.44439 27.5189ZM9.3518 30.5652C11.7777 30.5652 13.8333 31.7782 13.8333 33.2134V34.9819H4.87032V33.2134C4.87032 31.7782 6.91661 30.5652 9.3518 30.5652Z" fill="black"/>
<path d="M14.4072 36.454H4.2961C3.80536 36.454 3.39795 36.0558 3.39795 35.5558V33.2132C3.39795 31.6206 4.65721 30.2132 6.64795 29.528C6.21276 28.9447 5.97202 28.2503 5.97202 27.5095C5.97202 25.6484 7.49054 24.1299 9.34239 24.1299C11.2035 24.1299 12.722 25.6484 12.722 27.5095C12.722 28.2503 12.4813 28.9447 12.0461 29.528C14.0368 30.2132 15.2961 31.6206 15.2961 33.2132V35.5558C15.2961 36.0465 14.8979 36.454 14.4072 36.454ZM9.35165 24.7873C7.85165 24.7873 6.62943 26.0095 6.62943 27.5188C6.62943 28.2595 6.92573 28.9447 7.45351 29.4632L7.86091 29.8614L7.30536 30.0095C5.32388 30.5373 4.0461 31.7965 4.0461 33.2132V35.5558C4.0461 35.6947 4.15721 35.8058 4.2961 35.8058H14.4072C14.5461 35.8058 14.6572 35.6947 14.6572 35.5558V33.2132C14.6572 31.7965 13.3794 30.5373 11.3979 30.0095L10.0276 29.6484C9.81462 29.7132 9.59239 29.7503 9.35165 29.7503C8.12017 29.7503 7.12017 28.7503 7.12017 27.5188C7.12017 26.2873 8.12017 25.2873 9.35165 25.2873C10.5831 25.2873 11.5831 26.2873 11.5831 27.5188C11.5831 28.2965 11.185 28.9725 10.5831 29.3799H11.3331C11.8146 28.8706 12.0739 28.2132 12.0739 27.5188C12.0739 26.0095 10.8517 24.7873 9.35165 24.7873ZM9.35165 25.9262C8.48128 25.9262 7.76832 26.6391 7.76832 27.5095C7.76832 28.3799 8.48128 29.0928 9.35165 29.0928C10.222 29.0928 10.935 28.3799 10.935 27.5095C10.935 26.6391 10.222 25.9262 9.35165 25.9262ZM14.1572 35.3058H4.5461V33.2132C4.5461 31.5743 6.70351 30.241 9.35165 30.241C11.9998 30.241 14.1572 31.5743 14.1572 33.2132V35.3058ZM5.19425 34.6577H13.5091V33.2132C13.5091 31.9725 11.5646 30.8891 9.35165 30.8891C7.13869 30.8891 5.19425 31.9725 5.19425 33.2132V34.6577Z" fill="black"/>
<path d="M34.2779 29.6948C34.8519 29.1393 35.2038 28.3708 35.2038 27.5097C35.2038 25.8245 33.8334 24.4541 32.1575 24.4541C30.4723 24.4541 29.1112 25.8245 29.1112 27.5097C29.1112 28.3615 29.4723 29.1393 30.0371 29.6948C27.963 30.2504 26.5371 31.6022 26.5371 33.2134V35.556C26.5371 35.8708 26.7964 36.13 27.1112 36.13H37.2223C37.5371 36.13 37.7964 35.8708 37.7964 35.556V33.2134C37.7779 31.6022 36.3427 30.2504 34.2779 29.6948ZM30.2408 27.5189C30.2408 26.4634 31.1019 25.6115 32.1482 25.6115C33.2038 25.6115 34.0556 26.4726 34.0556 27.5189C34.0556 28.5745 33.1945 29.4263 32.1482 29.4263C31.0927 29.4263 30.2408 28.5652 30.2408 27.5189ZM32.1482 30.5652C34.5741 30.5652 36.6297 31.7782 36.6297 33.2134V34.9819H27.6667V33.2134C27.6667 31.7782 29.7223 30.5652 32.1482 30.5652Z" fill="black"/>
<path d="M37.2036 36.454H27.0925C26.6017 36.454 26.1943 36.0558 26.1943 35.5558V33.2132C26.1943 31.6206 27.4536 30.2132 29.4443 29.528C29.0092 28.9447 28.7684 28.2503 28.7684 27.5095C28.7684 25.6484 30.2869 24.1299 32.1388 24.1299C33.9999 24.1299 35.5092 25.6484 35.5092 27.5095C35.5092 28.2503 35.2684 28.9447 34.8332 29.528C36.824 30.2132 38.0832 31.6206 38.0832 33.2132V35.5558C38.1017 36.0465 37.6943 36.454 37.2036 36.454ZM32.148 24.7873C30.648 24.7873 29.4258 26.0095 29.4258 27.5188C29.4258 28.2595 29.7221 28.9447 30.2499 29.4632L30.6573 29.8614L30.1017 30.0095C28.1203 30.5373 26.8425 31.7965 26.8425 33.2132V35.5558C26.8425 35.6947 26.9536 35.8058 27.0925 35.8058H37.2036C37.3425 35.8058 37.4536 35.6947 37.4536 35.5558V33.2132C37.4536 31.8058 36.1943 30.5558 34.2314 30.0188H33.4814L34.0554 29.4632C34.5925 28.9447 34.8795 28.2503 34.8795 27.5095C34.8795 26.0095 33.648 24.7873 32.148 24.7873ZM36.9536 35.3058H27.3425V33.2132C27.3425 31.5743 29.4999 30.241 32.148 30.241C34.7962 30.241 36.9536 31.5743 36.9536 33.2132V35.3058V35.3058ZM27.9906 34.6577H36.3054V33.2132C36.3054 31.9725 34.361 30.8891 32.148 30.8891C29.9351 30.8891 27.9906 31.9725 27.9906 33.2132V34.6577V34.6577ZM32.148 29.7503C30.9166 29.7503 29.9166 28.7503 29.9166 27.5188C29.9166 26.2873 30.9166 25.2873 32.148 25.2873C33.3795 25.2873 34.3795 26.2873 34.3795 27.5188C34.3795 28.7503 33.3795 29.7503 32.148 29.7503ZM32.148 25.9262C31.2777 25.9262 30.5647 26.6391 30.5647 27.5095C30.5647 28.3799 31.2777 29.0928 32.148 29.0928C33.0184 29.0928 33.7314 28.3799 33.7314 27.5095C33.7314 26.6391 33.0277 25.9262 32.148 25.9262Z" fill="black"/>
<path d="M25.5092 25.6949L21.324 23.6486V19.7967C21.324 19.4819 21.0648 19.2227 20.75 19.2227C20.4351 19.2227 20.1759 19.4819 20.1759 19.7967V23.6486L15.9907 25.6949C15.7037 25.8338 15.5926 26.1764 15.7314 26.4541C15.8333 26.6578 16.037 26.7782 16.2407 26.7782C16.324 26.7782 16.4074 26.7597 16.4907 26.7227L20.75 24.6393L25.0092 26.7227C25.0926 26.7597 25.1759 26.7782 25.2592 26.7782C25.4722 26.7782 25.6759 26.6578 25.7685 26.4541C25.9074 26.1764 25.787 25.8338 25.5092 25.6949Z" fill="black"/>
<path d="M25.2592 27.1021C25.1203 27.1021 24.9907 27.0744 24.861 27.0095L20.7499 25.0003L16.6388 27.0095C16.5185 27.0651 16.3796 27.1021 16.2499 27.1021C15.9073 27.1021 15.5925 26.9077 15.4444 26.6021C15.3425 26.3892 15.324 26.1484 15.3981 25.917C15.4722 25.6855 15.6388 25.5095 15.8518 25.4077L19.861 23.4447V19.7966C19.861 19.3058 20.2592 18.8984 20.7592 18.8984C21.2499 18.8984 21.6573 19.2966 21.6573 19.7966V23.4447L25.6666 25.4077C26.111 25.6207 26.2962 26.1577 26.074 26.6021C25.9073 26.9077 25.6018 27.1021 25.2592 27.1021ZM20.7499 24.2781L25.1481 26.4262C25.1851 26.4447 25.2222 26.454 25.2592 26.454C25.3518 26.454 25.4444 26.3984 25.4814 26.3151C25.537 26.1947 25.4907 26.0466 25.3703 25.9818L20.9999 23.8429V19.7873C20.9999 19.6484 20.8888 19.5373 20.7499 19.5373C20.611 19.5373 20.4999 19.6484 20.4999 19.7873V23.8429L16.1296 25.9818C16.074 26.0096 16.0277 26.0651 16.0092 26.1207C15.9907 26.1855 15.9907 26.2503 16.0185 26.3058C16.0647 26.3892 16.1481 26.4447 16.2407 26.4447C16.2777 26.4447 16.3147 26.4355 16.3518 26.417L20.7499 24.2781Z" fill="black"/>
</svg>
