<svg width="41" height="41" viewBox="0 0 41 41" fill="none" xmlns="http://www.w3.org/2000/svg">
<path d="M36.6481 14.3241C34.1203 13.1574 31.4351 12.2592 28.6574 11.6481C25.8703 11.0463 23.0463 10.7407 20.2592 10.7407C17.4629 10.7407 14.6389 11.0463 11.8796 11.6481C9.13885 12.2407 6.45367 13.1389 3.87959 14.3241C2.99996 14.7315 2.57404 15.7592 2.91663 16.6666L7.60182 29.0741C7.787 29.5463 8.15737 29.9352 8.62033 30.1296C8.84256 30.2222 9.0833 30.2685 9.3333 30.2685C9.59256 30.2685 9.85182 30.2129 10.1111 30.1018C13.3055 28.6296 16.7222 27.8889 20.2592 27.8889C23.7963 27.8889 27.2129 28.6296 30.4166 30.1018C30.6481 30.2129 30.9166 30.2685 31.1851 30.2685C31.4351 30.2685 31.6759 30.2222 31.8889 30.1296C32.3703 29.9352 32.7407 29.5463 32.9166 29.0741L37.6018 16.6666C37.9537 15.75 37.537 14.7407 36.6481 14.3241ZM35.5 16.1481L31.0092 28.037C27.6389 26.537 23.9259 25.75 20.2407 25.75C16.5555 25.75 12.8333 26.5463 9.47219 28.037L4.98145 16.1481C9.82404 13.9722 14.9629 12.8704 20.25 12.8704C25.4629 12.8704 30.7314 14 35.5 16.1481Z" fill="black"/>
<path d="M18.4908 14.9536V17.6481H15.7964V21.1481H18.4908V23.8888H22.0094V21.2036H24.7038V17.6481H22.0094V14.9536H18.4908Z" fill="black"/>
</svg>
