<svg width="41" height="41" viewBox="0 0 41 41" fill="none" xmlns="http://www.w3.org/2000/svg">
<path d="M19.1572 8.14829V5.82422C17.5831 5.99089 16.0553 6.38903 14.6294 7.02792L15.7961 9.0557C16.8516 8.602 17.9812 8.29644 19.1572 8.14829Z" fill="black"/>
<path d="M33.4353 22.4355C33.2871 23.6115 32.9816 24.7411 32.5371 25.7967L34.5186 26.9448C35.1482 25.5281 35.5556 24.0096 35.7223 22.4355H33.4353Z" fill="black"/>
<path d="M33.4354 19.2409H35.7224C35.3706 15.815 33.8613 12.6298 31.3891 10.1668C28.9261 7.70387 25.7595 6.20387 22.3521 5.8335V8.14831C28.1298 8.87053 32.7132 13.4539 33.4354 19.2409Z" fill="black"/>
<path d="M30.9351 28.5557C30.2314 29.4816 29.4074 30.3149 28.4722 31.0186L29.6203 33.0094C30.2407 32.5557 30.8333 32.0464 31.3888 31.4909C31.9444 30.9353 32.4629 30.3334 32.9166 29.7038L30.9351 28.5557Z" fill="black"/>
<path d="M22.3521 33.5188V35.8243C23.9261 35.6576 25.4446 35.2502 26.8613 34.6113L25.7132 32.6206C24.6576 33.065 23.528 33.3706 22.3521 33.5188Z" fill="black"/>
<path d="M13.0279 10.6484L11.8612 8.62061C11.2316 9.08357 10.6297 9.59283 10.0649 10.1576C9.50933 10.7132 9.00007 11.3151 8.53711 11.9354L10.5649 13.1113C11.2686 12.1854 12.1019 11.3521 13.0279 10.6484Z" fill="black"/>
<path d="M11.8612 33.0279L13.0279 31.0186C12.1019 30.3149 11.2686 29.4908 10.5649 28.5557L8.54639 29.7223C9.00009 30.3427 9.50935 30.9353 10.0556 31.4816C10.6297 32.0557 11.2316 32.5649 11.8612 33.0279Z" fill="black"/>
<path d="M15.7961 32.6206L14.6294 34.6299C16.0553 35.2595 17.5738 35.6669 19.1479 35.8243V33.5188C17.9812 33.3706 16.8516 33.065 15.7961 32.6206Z" fill="black"/>
<path d="M8.07404 19.2411C8.22219 18.0652 8.52774 16.9356 8.97219 15.88L6.93515 14.7041C6.29626 16.13 5.88885 17.6578 5.73145 19.2411H8.07404Z" fill="black"/>
<path d="M8.07404 22.4355H5.73145C5.89811 24.0189 6.30552 25.5374 6.94441 26.9633L8.97219 25.7967C8.52774 24.7411 8.21293 23.6115 8.07404 22.4355Z" fill="black"/>
<path fill-rule="evenodd" clip-rule="evenodd" d="M28.3242 21.2501C28.3242 20.602 27.7965 20.0742 27.1483 20.0742H27.1391H21.9353V11.2501C21.9353 10.602 21.4076 10.0742 20.7594 10.0742C20.1113 10.0742 19.5835 10.602 19.5835 11.2501C19.5835 11.2594 19.5835 11.2779 19.5835 11.2872V22.4353H27.1391C27.7965 22.4261 28.3242 21.8983 28.3242 21.2501Z" fill="black"/>
</svg>
