<svg width="41" height="41" viewBox="0 0 41 41" fill="none" xmlns="http://www.w3.org/2000/svg">
<path d="M34.6018 9.24119L33.5185 8.3523C32.6944 7.65786 31.4259 7.77823 30.7222 8.6023L24.4722 15.8153H31.9351L34.9166 12.0005C35.5925 11.1764 35.4351 9.90786 34.6018 9.24119Z" fill="black"/>
<path d="M27.9074 33.3614H12.0833C11.1018 33.3614 10.2963 32.5651 10.2963 31.5743V29.9169C6.4907 27.3428 4.23145 23.3614 4.23145 19.1669C4.23145 18.1854 5.02774 17.3799 6.01848 17.3799H33.9722C34.9074 17.3799 35.6851 18.1391 35.75 19.1021V19.1669C35.75 21.3706 35.1296 23.5558 33.9629 25.491C32.9259 27.204 31.4537 28.7317 29.6851 29.9262V31.5836C29.6851 32.5651 28.8889 33.3614 27.9074 33.3614ZM12.1574 31.5095H27.8426V28.9077L28.2777 28.6391C31.8333 26.3984 33.8889 22.9725 33.9074 19.2317H6.0833C6.11108 22.9169 8.21293 26.4354 11.7129 28.6391L12.1481 28.9077V31.5095H12.1574Z" fill="black"/>
<path d="M24.0001 26.278C24.0001 26.5002 23.8427 26.6576 23.6204 26.6576H21.3056V28.9724C21.3056 29.1947 21.1482 29.3521 20.926 29.3521H19.1112C18.889 29.3521 18.7316 29.1947 18.7316 28.9724V26.6576H16.4167C16.1945 26.6576 16.0371 26.5002 16.0371 26.278V24.4354C16.0371 24.2132 16.1945 24.0558 16.4167 24.0558H18.7316V21.741C18.7316 21.5187 18.889 21.3613 19.1112 21.3613H20.889C21.1112 21.3613 21.2686 21.5187 21.2686 21.741V24.0558H23.5834C23.8056 24.0558 23.963 24.2132 23.963 24.4354V26.278H24.0001Z" fill="black"/>
</svg>
