<svg width="41" height="41" viewBox="0 0 41 41" fill="none" xmlns="http://www.w3.org/2000/svg">
<path fill-rule="evenodd" clip-rule="evenodd" d="M31.4814 25.4631V31.9724C31.4814 32.8705 32.2129 33.602 33.1111 33.602H35.2777C36.1759 33.602 36.9074 32.8705 36.9074 31.9724V25.4631C36.9074 24.565 36.1759 23.8335 35.2777 23.8335H33.1111C32.2129 23.8335 31.4814 24.565 31.4814 25.4631ZM32.574 25.4631C32.574 25.1668 32.8148 24.9168 33.1203 24.9168H35.287C35.5833 24.9168 35.8333 25.1576 35.8333 25.4631V31.9724C35.8333 32.2687 35.5926 32.5187 35.287 32.5187H33.1203C32.824 32.5187 32.574 32.2779 32.574 31.9724V25.4631Z" fill="black"/>
<path d="M35.287 33.8797H33.1203C32.074 33.8797 31.2129 33.0279 31.2129 31.9723V25.4631C31.2129 24.4168 32.0647 23.5557 33.1203 23.5557H35.287C36.3333 23.5557 37.1944 24.4075 37.1944 25.4631V31.9723C37.1851 33.0279 36.3333 33.8797 35.287 33.8797ZM33.111 24.1112C32.3703 24.1112 31.7592 24.7131 31.7592 25.4631V31.9723C31.7592 32.7131 32.361 33.3242 33.111 33.3242H35.2777C36.0184 33.3242 36.6296 32.7223 36.6296 31.9723V25.4631C36.6296 24.7223 36.0277 24.1112 35.2777 24.1112H33.111ZM35.287 32.7964H33.1203C32.6666 32.7964 32.2962 32.426 32.2962 31.9723V25.4631C32.2962 25.0094 32.6666 24.639 33.1203 24.639H35.287C35.7407 24.639 36.111 25.0094 36.111 25.4631V31.9723C36.1018 32.426 35.7314 32.7964 35.287 32.7964ZM33.111 25.2038C32.9629 25.2038 32.8425 25.3242 32.8425 25.4723V31.9816C32.8425 32.1297 32.9629 32.2501 33.111 32.2501H35.2777C35.4259 32.2501 35.5462 32.1297 35.5462 31.9816V25.4723C35.5462 25.3242 35.4259 25.2038 35.2777 25.2038H33.111Z" fill="black"/>
<path fill-rule="evenodd" clip-rule="evenodd" d="M10.5649 25.4631V31.9724C10.5649 32.8705 11.2964 33.602 12.1946 33.602H14.3612C15.2594 33.602 15.9909 32.8705 15.9909 31.9724V25.4631C15.9909 24.565 15.2594 23.8335 14.3612 23.8335H12.1946C11.2872 23.8335 10.5649 24.565 10.5649 25.4631ZM11.6483 25.4631C11.6483 25.1668 11.889 24.9168 12.1946 24.9168H14.3612C14.6575 24.9168 14.9075 25.1576 14.9075 25.4631V31.9724C14.9075 32.2687 14.6668 32.5187 14.3612 32.5187H12.1946C11.8983 32.5187 11.6483 32.2779 11.6483 31.9724V25.4631Z" fill="black"/>
<path d="M14.3612 33.8797H12.1945C11.1482 33.8797 10.2871 33.0279 10.2871 31.9723V25.4631C10.2871 24.4168 11.139 23.5557 12.1945 23.5557H14.3612C15.4075 23.5557 16.2686 24.4075 16.2686 25.4631V31.9723C16.2686 33.0279 15.4075 33.8797 14.3612 33.8797ZM12.1945 24.1112C11.4538 24.1112 10.8427 24.7131 10.8427 25.4631V31.9723C10.8427 32.7131 11.4445 33.3242 12.1945 33.3242H14.3612C15.1019 33.3242 15.713 32.7223 15.713 31.9723V25.4631C15.713 24.7223 15.1112 24.1112 14.3612 24.1112H12.1945ZM14.3612 32.7964H12.1945C11.7408 32.7964 11.3704 32.426 11.3704 31.9723V25.4631C11.3704 25.0094 11.7408 24.639 12.1945 24.639H14.3612C14.8149 24.639 15.1853 25.0094 15.1853 25.4631V31.9723C15.1853 32.426 14.8149 32.7964 14.3612 32.7964ZM12.1945 25.2038C12.0464 25.2038 11.926 25.3242 11.926 25.4723V31.9816C11.926 32.1297 12.0464 32.2501 12.1945 32.2501H14.3612C14.5093 32.2501 14.6297 32.1297 14.6297 31.9816V25.4723C14.6297 25.3242 14.5093 25.2038 14.3612 25.2038H12.1945Z" fill="black"/>
<path fill-rule="evenodd" clip-rule="evenodd" d="M3.59277 16.7873V31.9818C3.59277 32.8799 4.32426 33.6114 5.2224 33.6114H7.38907C8.28722 33.6114 9.0187 32.8799 9.0187 31.9818V16.7873C9.0187 15.8892 8.28722 15.1577 7.38907 15.1577H5.21314C4.315 15.1577 3.59277 15.8799 3.59277 16.7873ZM4.67611 16.7873C4.67611 16.491 4.91685 16.241 5.2224 16.241H7.38907C7.68537 16.241 7.93537 16.4818 7.93537 16.7873V31.9818C7.93537 32.2781 7.69463 32.5281 7.38907 32.5281H5.21314C4.91685 32.5281 4.66685 32.2873 4.66685 31.9818V16.7873H4.67611Z" fill="black"/>
<path d="M7.389 33.8799H5.21307C4.16677 33.8799 3.30566 33.028 3.30566 31.9725V16.7873C3.30566 15.741 4.15752 14.8799 5.21307 14.8799H7.37974C8.42603 14.8799 9.28715 15.7317 9.28715 16.7873V31.9817C9.2964 33.028 8.43529 33.8799 7.389 33.8799ZM5.21307 15.4354C4.47233 15.4354 3.86122 16.0373 3.86122 16.7873V31.9817C3.86122 32.7225 4.46307 33.3336 5.21307 33.3336H7.37974C8.12048 33.3336 8.73159 32.7317 8.73159 31.9817V16.7873C8.73159 16.0466 8.12974 15.4354 7.37974 15.4354H5.21307ZM7.389 32.7966H5.21307C4.75937 32.7966 4.389 32.4262 4.389 31.9725V16.7873C4.389 16.3336 4.75937 15.9632 5.21307 15.9632H7.37974C7.83344 15.9632 8.20381 16.3336 8.20381 16.7873V31.9817C8.20381 32.4262 7.8427 32.7966 7.389 32.7966ZM5.21307 16.5188C5.06492 16.5188 4.94455 16.6391 4.94455 16.7873V31.9817C4.94455 32.1299 5.06492 32.2503 5.21307 32.2503H7.37974C7.52789 32.2503 7.64826 32.1299 7.64826 31.9817V16.7873C7.64826 16.6391 7.52789 16.5188 7.37974 16.5188H5.21307Z" fill="black"/>
<path d="M21.6019 20.0928V31.9817C21.6019 32.0558 21.5741 32.1206 21.5278 32.1669C21.4815 32.2132 21.4075 32.241 21.3426 32.241H19.176C19.1019 32.241 19.0371 32.2132 18.9908 32.1669C18.9445 32.1206 18.9167 32.0465 18.9167 31.9817V20.6762C18.8519 20.6762 18.7871 20.6854 18.7223 20.6854C18.2315 20.6854 17.7408 20.6391 17.2778 20.5465V31.991C17.2778 32.5002 17.4723 32.9817 17.8334 33.3336C18.1945 33.6947 18.6667 33.8891 19.1852 33.8891H21.3519C21.8612 33.8891 22.3426 33.6947 22.6945 33.3336C23.0556 32.9725 23.2501 32.491 23.2501 31.9817V19.1206C22.7408 19.5095 22.1945 19.8336 21.6019 20.0928Z" fill="black"/>
<path d="M28.3055 8.37061H26.1389C25.5926 8.37061 25.0926 8.60209 24.75 8.98172C25.2592 9.69468 25.6481 10.5095 25.8796 11.3799V10.278C25.8796 10.1299 26 10.0095 26.1481 10.0095H28.3055C28.4537 10.0095 28.574 10.1299 28.574 10.278V31.9817C28.574 32.1299 28.4537 32.2502 28.3055 32.2502H26.1389C25.9907 32.2502 25.8703 32.1299 25.8703 31.9817V15.1484C25.5648 16.2965 25 17.3336 24.2314 18.1947V31.9725C24.2314 33.0188 25.0833 33.8799 26.1389 33.8799H28.3055C29.3518 33.8799 30.2129 33.028 30.2129 31.9725V10.2688C30.2129 9.22246 29.3611 8.37061 28.3055 8.37061Z" fill="black"/>
<path d="M18.7035 6.73192C22.3146 6.73192 25.2406 9.65784 25.2406 13.269C25.2406 16.8801 22.3146 19.7967 18.7035 19.7967C15.0924 19.7967 12.1665 16.8708 12.1665 13.2597C12.1665 9.64858 15.1017 6.73192 18.7035 6.73192ZM18.7035 4.97266C14.1294 4.97266 10.4072 8.69488 10.4072 13.269C10.4072 17.843 14.1294 21.5653 18.7035 21.5653C23.2776 21.5653 26.9998 17.843 26.9998 13.269C26.9998 8.69488 23.2776 4.97266 18.7035 4.97266Z" fill="black"/>
<path d="M19.6203 12.4171C19.074 12.2226 18.4629 11.9912 18.1389 11.7319C18.1203 11.7134 18.0741 11.6115 18.1018 11.4634C18.1111 11.3893 18.1759 11.1578 18.4074 11.0837C18.6574 11.0097 18.9722 11.1393 19.2407 11.2875C19.5833 11.4819 20.0185 11.4171 20.287 11.1208C20.6666 10.7134 20.5555 10.0467 20.0555 9.78745C19.8889 9.70412 19.7129 9.62079 19.5278 9.54671C19.5185 9.08375 19.1389 8.71338 18.6666 8.71338C18.2315 8.71338 17.8703 9.03745 17.8148 9.46338C17.0926 9.72264 16.5648 10.3523 16.4166 11.1393C16.2685 11.8986 16.5278 12.6486 17.0833 13.0745C17.6018 13.4819 18.3333 13.7689 19.0555 14.0282C19.4815 14.1763 19.5278 14.4819 19.4907 14.7134C19.4444 14.9726 19.2315 15.4078 18.6759 15.4078C18.1018 15.4078 17.9629 15.3893 17.5463 15.1115C17.1481 14.8523 16.6111 14.9634 16.3518 15.3615C16.0926 15.7597 16.2037 16.2967 16.6018 16.556C17.0648 16.8615 17.4259 17.0097 17.8333 17.0745C17.9074 17.4819 18.2592 17.7875 18.6759 17.7875C19.1296 17.7875 19.5092 17.4263 19.537 16.9819C20.3889 16.6763 21.0278 15.9356 21.1852 15.0004C21.3703 13.8615 20.7407 12.8152 19.6203 12.4171Z" fill="black"/>
</svg>
