<svg width="41" height="41" viewBox="0 0 41 41" fill="none" xmlns="http://www.w3.org/2000/svg">
<path d="M35.2594 35.0926H32.2594V22.5C33.1205 23.2685 34.5279 23.2408 35.352 22.4259C35.7779 22 36.0094 21.4352 36.0094 20.8334C36.0094 20.2315 35.7779 19.6667 35.352 19.2408L31.5094 15.3982V7.32409C31.5094 6.90743 31.1761 6.57409 30.7594 6.57409H26.2594C25.8428 6.57409 25.5094 6.90743 25.5094 7.32409V9.39817L21.8428 5.7315C20.9631 4.85187 19.5372 4.85187 18.6576 5.7315L5.14832 19.2408C4.26869 20.1204 4.26869 21.5463 5.15757 22.4259C5.59276 22.8704 6.16683 23.0834 6.75017 23.0834C7.2872 23.0834 7.82424 22.8889 8.24091 22.5093V35.1019H5.24091C4.82424 35.1019 4.49091 35.4352 4.49091 35.8519C4.49091 36.2685 4.82424 36.6019 5.24091 36.6019H35.2687C35.6854 36.6019 36.0187 36.2685 36.0187 35.8519C36.0094 35.4352 35.6761 35.0926 35.2594 35.0926ZM27.0094 8.07409H30.0094V13.8982L27.0094 10.8982V8.07409ZM6.21313 21.3611C5.91683 21.0648 5.91683 20.5926 6.21313 20.3056L19.7224 6.78706C19.8705 6.64817 20.0557 6.56483 20.2594 6.56483C20.4539 6.56483 20.6391 6.63891 20.7872 6.78706L34.2872 20.2963C34.4261 20.4352 34.5094 20.6296 34.5094 20.8334C34.5094 21.0371 34.4354 21.2222 34.2872 21.3704C34.0002 21.6574 33.5094 21.6574 33.2316 21.3704L20.7872 8.91668C20.4909 8.62039 20.0187 8.62039 19.7316 8.91668L7.26869 21.3704C6.98165 21.6574 6.50943 21.6574 6.21313 21.3611ZM13.4909 35.0926V26.0834H17.2409V35.0926H13.4909ZM18.7502 35.0926V25.3334C18.7502 24.9167 18.4168 24.5834 18.0002 24.5834H12.7409C12.3242 24.5834 11.9909 24.9167 11.9909 25.3334V35.0926H9.74091V21.0185L20.2502 10.5093L30.7594 21.0185V35.0926H18.7502Z" fill="black"/>
<path d="M35.2595 36.7315H5.24094C4.7502 36.7315 4.35205 36.3333 4.35205 35.8426C4.35205 35.3518 4.7502 34.9537 5.24094 34.9537H8.10205V22.7963C7.7039 23.0741 7.23168 23.2222 6.7502 23.2222C6.10205 23.2222 5.5002 22.9722 5.05575 22.5185C4.60205 22.0648 4.35205 21.4722 4.35205 20.8333C4.35205 20.1944 4.60205 19.5926 5.0465 19.1389L18.5558 5.62961C19.4909 4.69443 21.0002 4.69443 21.9354 5.62961L25.3613 9.05554V7.32406C25.3613 6.83332 25.7595 6.43517 26.2502 6.43517H30.7502C31.2409 6.43517 31.6391 6.83332 31.6391 7.32406V15.3426L35.4446 19.1481C35.8984 19.6018 36.1484 20.2037 36.1484 20.8333C36.1484 21.4722 35.8984 22.0741 35.4446 22.5185C34.6391 23.3241 33.3243 23.4166 32.3891 22.7778V34.9537H35.2502C35.7409 34.9537 36.1391 35.3518 36.1391 35.8426C36.1576 36.3333 35.7502 36.7315 35.2595 36.7315ZM5.24094 35.2315C4.90761 35.2315 4.62983 35.5092 4.62983 35.8426C4.62983 36.1759 4.90761 36.4537 5.24094 36.4537H35.2687C35.6021 36.4537 35.8798 36.1759 35.8798 35.8426C35.8798 35.5092 35.6206 35.2407 35.2872 35.2315H35.2687H32.1298V22.1852L32.3613 22.3889C33.1761 23.1111 34.5002 23.0741 35.2595 22.3148C35.6576 21.9166 35.8798 21.3889 35.8798 20.8241C35.8798 20.2592 35.6576 19.7315 35.2595 19.3333L31.3798 15.4537V7.32406C31.3798 6.99072 31.1021 6.71295 30.7687 6.71295H26.2687C25.9354 6.71295 25.6576 6.99072 25.6576 7.32406V9.73146L21.7595 5.83332C20.9354 5.00924 19.5928 5.00924 18.7687 5.83332L5.24094 19.3426C4.84279 19.7407 4.62057 20.2685 4.62057 20.8333C4.62057 21.3981 4.84279 21.9259 5.24094 22.3241C5.63909 22.7222 6.16687 22.9444 6.73168 22.9444C7.2502 22.9444 7.7502 22.75 8.12983 22.3981L8.36131 22.1852V35.2315H5.24094ZM30.8983 35.2315H18.6113V25.3333C18.6113 25 18.3335 24.7222 18.0002 24.7222H12.7409C12.4076 24.7222 12.1298 25 12.1298 25.3333V35.2315H9.60205V20.9629L20.2502 10.3148L30.8983 20.9629V35.2315ZM18.8891 34.9537H30.6206V21.0741L20.2502 10.7037L9.87983 21.0741V34.9537H11.8521V25.3333C11.8521 24.8426 12.2502 24.4444 12.7409 24.4444H18.0002C18.4909 24.4444 18.8891 24.8426 18.8891 25.3333V34.9537V34.9537ZM17.3891 35.2315H13.3613V25.9444H17.3891V35.2315ZM13.6298 34.9537H17.1021V26.2222H13.6298V34.9537ZM6.7502 21.7222C6.74094 21.7222 6.74094 21.7222 6.7502 21.7222C6.50946 21.7222 6.28724 21.6296 6.12057 21.4537C5.77798 21.1111 5.77798 20.5463 6.12057 20.1944L19.6298 6.68517C19.8058 6.5185 20.028 6.42591 20.2595 6.42591C20.4909 6.42591 20.7132 6.5185 20.8798 6.68517L34.3798 20.1944C34.5465 20.3611 34.6391 20.5833 34.6391 20.8241C34.6391 21.0648 34.5465 21.287 34.3798 21.4537C34.2132 21.6204 33.9909 21.7129 33.7502 21.7129C33.7502 21.7129 33.7502 21.7129 33.7409 21.7129C33.5002 21.7129 33.278 21.6204 33.1206 21.4537L20.6854 9.0185C20.4446 8.77776 20.065 8.77776 19.8243 9.0185L7.37057 21.4629C7.2039 21.6296 6.98168 21.7222 6.7502 21.7222ZM20.2595 6.71295C20.0928 6.71295 19.9446 6.77776 19.8243 6.88887L6.31501 20.3981C6.07427 20.6389 6.07427 21.0185 6.31501 21.2592C6.42613 21.3796 6.58353 21.4444 6.74094 21.4444C6.89835 21.4537 7.05575 21.3796 7.17613 21.2685L19.6298 8.82406C19.9724 8.48146 20.5372 8.48146 20.8891 8.82406L33.3335 21.2685C33.4446 21.3796 33.5928 21.4444 33.7595 21.4444C33.9261 21.4444 34.0835 21.3796 34.1946 21.2685C34.3058 21.1481 34.3706 21 34.3706 20.8333C34.3706 20.6666 34.3058 20.5185 34.1946 20.3981L20.6854 6.88887C20.5743 6.7685 20.4169 6.71295 20.2595 6.71295ZM30.1483 14.2315L26.8706 10.9537V7.93517H30.1483V14.2315ZM27.1483 10.8333L29.8706 13.5555V8.21294H27.1483V10.8333Z" fill="black"/>
<path d="M27.7593 32.0923H21.75C21.3333 32.0923 21 31.7589 21 31.3423V25.333C21 24.9163 21.3333 24.583 21.75 24.583H27.7593C28.1759 24.583 28.5093 24.9163 28.5093 25.333V31.3423C28.5093 31.7589 28.1667 32.0923 27.7593 32.0923ZM22.5 30.5923H27.0093V26.0923H22.5093V30.5923H22.5Z" fill="black"/>
<path d="M27.7595 32.2314H21.7502C21.2595 32.2314 20.8613 31.8332 20.8613 31.3425V25.3332C20.8613 24.8425 21.2595 24.4443 21.7502 24.4443H27.7595C28.2502 24.4443 28.6484 24.8425 28.6484 25.3332V31.3425C28.6484 31.8332 28.2502 32.2314 27.7595 32.2314ZM21.7502 24.7221C21.4169 24.7221 21.1391 24.9999 21.1391 25.3332V31.3425C21.1391 31.6758 21.4169 31.9536 21.7502 31.9536H27.7595C28.0928 31.9536 28.3706 31.6758 28.3706 31.3425V25.3332C28.3706 24.9999 28.0928 24.7221 27.7595 24.7221H21.7502ZM27.1484 30.7314H22.3706V25.9536H27.1484V30.7314ZM22.6391 30.4536H26.8613V26.2314H22.6391V30.4536Z" fill="black"/>
</svg>
